HIERARCHY
ROOT Hips
{
	OFFSET 0.000000 0.000000 0.000000
	CHANNELS 6 Xposition Yposition Zposition Yrotation Xrotation Zrotation
	JOINT Chest
	{
		OFFSET 0.000000 -0.009281 11.569106
		CHANNELS 3 Yrotation Xrotation Zrotation
		JOINT Chest2
		{
			OFFSET -0.000000 0.016865 9.269641
			CHANNELS 3 Yrotation Xrotation Zrotation
			JOINT Chest3
			{
				OFFSET -0.000000 0.000001 8.374491
				CHANNELS 3 Yrotation Xrotation Zrotation
				JOINT Chest4
				{
					OFFSET -0.000000 0.000001 8.374493
					CHANNELS 3 Yrotation Xrotation Zrotation
					JOINT Neck
					{
						OFFSET -0.000000 0.000002 12.152554
						CHANNELS 3 Yrotation Xrotation Zrotation
						JOINT Head
						{
							OFFSET -0.000000 0.040101 7.802319
							CHANNELS 3 Yrotation Xrotation Zrotation
							End Site
							{
								OFFSET -0.000000 0.020947 14.853096
							}
						}
					}
					JOINT RightCollar
					{
						OFFSET 2.894404 0.000001 6.791374
						CHANNELS 3 Yrotation Xrotation Zrotation
						JOINT RightShoulder
						{
							OFFSET 13.574684 0.000001 0.000000
							CHANNELS 3 Yrotation Xrotation Zrotation
							JOINT RightElbow
							{
								OFFSET 23.923903 0.000002 0.000000
								CHANNELS 3 Yrotation Xrotation Zrotation
								JOINT RightWrist
								{
									OFFSET 19.846718 0.012767 0.000000
									CHANNELS 3 Yrotation Xrotation Zrotation
									End Site
									{
										OFFSET 14.973145 0.000001 0.000000
									}
								}
							}
						}
					}
					JOINT LeftCollar
					{
						OFFSET -2.894404 0.000001 6.791374
						CHANNELS 3 Yrotation Xrotation Zrotation
						JOINT LeftShoulder
						{
							OFFSET -13.574684 -0.000001 0.000000
							CHANNELS 3 Yrotation Xrotation Zrotation
							JOINT LeftElbow
							{
								OFFSET -23.923903 -0.000002 0.000000
								CHANNELS 3 Yrotation Xrotation Zrotation
								JOINT LeftWrist
								{
									OFFSET -19.846718 0.012763 0.000000
									CHANNELS 3 Yrotation Xrotation Zrotation
									End Site
									{
										OFFSET -14.973145 -0.000001 0.000000
									}
								}
							}
						}
					}
				}
			}
		}
	}
	JOINT RightHip
	{
		OFFSET 9.469263 0.004643 0.045487
		CHANNELS 3 Yrotation Xrotation Zrotation
		JOINT RightKnee
		{
			OFFSET 0.000000 0.002661 -40.478676
			CHANNELS 3 Yrotation Xrotation Zrotation
			JOINT RightAnkle
			{
				OFFSET 0.000000 0.049106 -35.224068
				CHANNELS 3 Yrotation Xrotation Zrotation
				JOINT RightToe
				{
					OFFSET -0.000001 12.539529 -6.151390
					CHANNELS 3 Yrotation Xrotation Zrotation
					End Site
					{
						OFFSET -0.000001 5.044994 -1.291870
					}
				}
			}
		}
	}
	JOINT LeftHip
	{
		OFFSET -9.469263 0.004641 0.045487
		CHANNELS 3 Yrotation Xrotation Zrotation
		JOINT LeftKnee
		{
			OFFSET 0.000000 0.002661 -40.478676
			CHANNELS 3 Yrotation Xrotation Zrotation
			JOINT LeftAnkle
			{
				OFFSET 0.000000 0.049106 -35.224068
				CHANNELS 3 Yrotation Xrotation Zrotation
				JOINT LeftToe
				{
					OFFSET -0.000001 12.539529 -6.151390
					CHANNELS 3 Yrotation Xrotation Zrotation
					End Site
					{
						OFFSET -0.000001 5.044994 -1.291870
					}
				}
			}
		}
	}
}
MOTION
Frames: 12
Frame Time: 0.016667
88.729156 -3.860866 82.224205 2.473718 -4.512476 -158.960331 -1.265028 -2.681400 2.396361 -0.728455 -1.149086 0.695586 -0.728456 -1.149086 0.695587 -0.545017 -0.862646 0.520305 6.988162 -23.294594 -9.390737 10.099685 -6.837099 -15.051128 9.242331 4.211004 -2.278329 43.028553 -13.642523 -16.221860 -37.699690 -65.064252 98.891263 -57.983498 37.128396 37.451047 -8.039306 3.158322 -3.019276 -41.691550 -12.629293 22.388455 20.987501 -60.219913 -81.651975 27.761628 18.627645 -69.596493 9.365250 -0.507869 -11.609477 5.052682 -0.743921 -5.457018 -9.875236 -1.778814 -0.280192 0.984473 0.624753 -0.082766 5.481570 12.071884 2.340898 7.787517 -32.074862 0.281420 17.171000 -7.931549 10.226954 -9.953540 0.460096 -1.361767 
88.750427 -4.216838 82.173630 2.533241 -3.969149 -159.540474 -1.285618 -2.313788 1.970770 -0.720130 -1.153912 0.685003 -0.720132 -1.153913 0.685005 -0.538787 -0.866244 0.512378 6.924053 -23.288141 -9.291537 10.010063 -6.829581 -14.889580 9.203805 4.334396 -2.342912 42.957932 -13.599138 -16.263652 -37.876182 -65.063118 99.126815 -57.867931 37.005490 37.515849 -8.033685 3.167714 -3.048161 -41.633316 -12.649907 22.410580 20.999647 -60.170237 -81.799903 27.841659 18.508571 -69.481247 9.396789 -0.326077 -11.689849 4.755576 -0.686464 -5.405863 -9.314130 -1.293541 0.409878 0.457851 0.340483 -0.106852 3.834972 13.345155 -0.082292 7.601282 -29.183114 1.540936 15.944602 -6.364688 8.643148 -11.528486 0.137606 -1.298488 
88.833580 -4.579103 82.148361 2.425755 -3.804797 -160.637211 -1.349546 -2.358379 2.028317 -0.715703 -1.163523 0.703347 -0.715703 -1.163523 0.703351 -0.535420 -0.873469 0.526130 6.865953 -23.286367 -9.196688 9.930447 -6.830279 -14.734393 9.194333 4.473389 -2.375564 42.851521 -13.611829 -16.248661 -38.055468 -65.125847 99.398322 -57.823603 36.922606 37.533146 -7.996213 3.256006 -3.055300 -41.545876 -12.491544 22.409231 21.067717 -60.277123 -81.981196 27.869781 18.320765 -69.390569 9.365883 -0.637549 -11.519793 4.429188 -0.570524 -5.473789 -8.372464 -0.758303 1.385339 -0.219514 0.002476 -0.150793 2.298887 13.960831 -2.220235 6.932262 -26.206080 1.510761 14.476139 -5.274457 8.378536 -11.654968 -0.739101 -1.108349 
88.878525 -4.958305 82.137604 2.387000 -3.830226 -161.920645 -1.295820 -2.551918 2.206288 -0.708344 -1.174338 0.749695 -0.708344 -1.174338 0.749696 -0.529799 -0.881625 0.560893 6.796890 -23.287926 -9.100429 9.831788 -6.837805 -14.579694 9.205556 4.485579 -2.324883 42.748272 -13.662471 -16.151297 -38.030282 -65.216511 99.481528 -57.908106 36.941440 37.483354 -7.948901 3.338309 -3.013635 -41.501216 -12.302561 22.347001 21.162781 -60.357050 -82.153112 27.867426 18.095893 -69.346036 9.472304 -1.154165 -11.371719 4.226487 -0.347787 -5.263441 -7.707359 -0.431520 2.128231 -0.640216 -0.202354 -0.075677 1.045414 14.384238 -4.521843 5.813927 -23.750883 -0.151832 12.785368 -4.273189 9.666257 -6.312540 -3.738131 -0.772577 
88.831512 -5.337502 82.132332 2.356555 -3.760794 -163.075425 -1.247406 -2.647194 2.194713 -0.705729 -1.188352 0.804154 -0.705729 -1.188352 0.804154 -0.527715 -0.892197 0.601718 6.713025 -23.292521 -8.985862 9.711571 -6.851853 -14.396087 9.247576 4.473595 -2.223120 42.666129 -13.881810 -16.021798 -37.848414 -65.271446 99.381199 -58.148296 37.049804 37.343871 -7.934873 3.448990 -2.956127 -41.518394 -12.208261 22.314974 21.289138 -60.268729 -82.287776 27.808514 17.839361 -69.391983 9.708967 -1.656977 -11.665498 3.977578 0.125223 -4.217447 -7.380191 -0.414130 2.274793 -0.762609 -0.285459 0.106336 -0.261732 14.844931 -6.820565 4.812855 -21.467974 -2.263267 10.840488 -3.322136 10.774697 -2.185647 -5.906027 -0.724635 
88.732140 -5.697159 82.130829 2.237230 -3.493072 -164.157682 -1.312972 -2.593297 2.073967 -0.722638 -1.196619 0.852704 -0.722637 -1.196620 0.852705 -0.540290 -0.898476 0.638095 6.626030 -23.294019 -8.843665 9.592702 -6.860395 -14.163515 9.283759 4.398533 -2.183163 42.633037 -14.153887 -15.790339 -37.657924 -65.312461 99.211182 -58.451516 37.141080 37.162964 -7.902809 3.459934 -2.933349 -41.568490 -12.078398 22.239383 21.559492 -60.091294 -82.496220 27.708892 17.691505 -69.525582 9.904853 -1.994256 -11.911923 3.606953 0.696770 -3.194546 -7.155551 -0.513690 2.487299 -0.744263 -0.321101 0.202968 -1.618571 15.473204 -8.816238 3.950320 -18.981009 -3.858475 8.500088 -2.724639 10.686803 1.163580 -7.454268 -0.780445 
88.620438 -6.054645 82.137901 2.044369 -3.249077 -165.373701 -1.431140 -2.582457 2.063872 -0.753555 -1.199586 0.893882 -0.753554 -1.199587 0.893882 -0.563392 -0.900796 0.668907 6.532998 -23.295410 -8.677286 9.469318 -6.869136 -13.889020 9.291998 4.278690 -2.220600 42.665706 -14.322509 -15.524081 -37.521764 -65.377847 99.053275 -58.688783 37.162636 37.032965 -7.843805 3.424186 -2.934404 -41.578165 -11.975167 22.106281 21.916248 -59.944315 -82.794494 27.668067 17.714896 -69.709368 9.990490 -2.325508 -11.673725 3.254498 1.183618 -2.680663 -6.986938 -0.594346 2.913469 -0.673559 -0.329275 0.201187 -2.799435 16.082558 -9.812391 3.335411 -16.327330 -4.795204 5.833028 -2.372940 9.420210 3.871612 -8.570101 -0.851987 
88.506126 -6.389544 82.153709 1.841299 -2.986960 -166.683527 -1.558806 -2.553594 2.102643 -0.780452 -1.191213 0.929687 -0.780452 -1.191213 0.929684 -0.583507 -0.894601 0.695719 6.415553 -23.303173 -8.487516 9.308655 -6.891071 -13.579134 9.309774 4.216871 -2.229202 42.723383 -14.354595 -15.410954 -37.535731 -65.437447 99.029253 -58.833173 37.137569 36.969017 -7.804034 3.435641 -2.910286 -41.511287 -11.998173 21.979187 22.165709 -59.868124 -83.046016 27.654309 17.795291 -69.845890 9.999524 -2.570104 -11.031697 2.960196 1.558352 -2.296219 -6.925811 -0.698385 3.222433 -0.549391 -0.311605 0.181014 -3.844539 16.622445 -9.665584 2.886603 -13.472651 -5.333330 3.410747 -2.187019 7.869517 5.853241 -9.463635 -0.974915 
88.390312 -6.713470 82.174484 1.648412 -2.740543 -168.021506 -1.663419 -2.535405 2.127554 -0.794739 -1.173344 0.952818 -0.794739 -1.173345 0.952817 -0.594206 -0.881252 0.713062 6.260605 -23.313650 -8.272126 9.087515 -6.920095 -13.233178 9.336800 4.221571 -2.201501 42.758859 -14.298718 -15.447591 -37.697129 -65.469603 99.178021 -58.920784 37.111730 36.932025 -7.783835 3.440453 -2.861509 -41.410720 -12.066042 21.868746 22.228866 -59.846384 -83.145949 27.683004 17.789398 -69.897492 9.985627 -2.756031 -10.370995 2.695745 1.797994 -1.678109 -6.897318 -0.831034 3.339825 -0.432555 -0.249404 0.143124 -4.758769 16.993360 -8.869141 2.194972 -10.509480 -5.581762 1.658548 -2.234519 6.845271 7.205737 -10.024344 -1.093291 
88.278793 -7.023586 82.195251 1.497123 -2.491123 -169.325307 -1.725331 -2.507944 2.109056 -0.796948 -1.152290 0.951236 -0.796948 -1.152289 0.951236 -0.595898 -0.865462 0.711903 6.079968 -23.316198 -8.035046 8.825349 -6.935689 -12.854745 9.351151 4.240445 -2.198223 42.772550 -14.208539 -15.527325 -37.841697 -65.492478 99.361098 -58.983984 37.099972 36.896443 -7.752505 3.403087 -2.832742 -41.328392 -12.099968 21.808140 22.223195 -59.851022 -83.174041 27.736710 17.673000 -69.860329 9.969110 -2.879336 -9.866320 2.478563 1.943321 -0.901629 -6.869420 -0.946688 3.450293 -0.347089 -0.181224 0.095727 -5.569057 17.311000 -7.955688 1.377502 -7.757787 -5.285819 0.279854 -2.427828 6.235232 8.181225 -10.122687 -1.150321 
88.184555 -7.322235 82.212517 1.364031 -2.247025 -170.564864 -1.779164 -2.480672 2.043093 -0.788420 -1.137429 0.928808 -0.788419 -1.137429 0.928806 -0.589567 -0.854274 0.695114 5.891460 -23.299061 -7.788509 8.550217 -6.914957 -12.460779 9.364509 4.247527 -2.219085 42.792149 -14.101405 -15.630009 -37.810209 -65.483564 99.393316 -59.028216 37.097189 36.875597 -7.689604 3.309082 -2.843484 -41.262624 -12.090394 21.766445 22.276821 -59.886368 -83.278120 27.832681 17.528656 -69.739599 9.957882 -2.990871 -9.530703 2.258309 2.074797 -0.120921 -6.797705 -1.027230 3.652484 -0.297405 -0.137287 0.052727 -6.198346 17.656092 -7.137350 0.174219 -5.430750 -4.233516 -1.014833 -2.760540 5.632448 9.166875 -9.701197 -1.179520 
88.103737 -7.613573 82.223602 1.271660 -2.021991 -171.732648 -1.803419 -2.455232 1.941639 -0.770998 -1.128393 0.891210 -0.770998 -1.128393 0.891210 -0.576586 -0.847424 0.666964 5.713694 -23.267668 -7.547039 8.292208 -6.866899 -12.072696 9.376374 4.246168 -2.273633 42.858590 -13.995104 -15.778637 -37.701275 -65.407046 99.310308 -59.053761 37.127986 36.871052 -7.605708 3.109835 -2.882862 -41.196091 -12.077121 21.660323 22.303059 -59.940395 -83.390592 27.949136 17.432246 -69.577621 9.975857 -3.113955 -9.243022 2.041843 2.218425 0.508437 -6.647946 -1.063765 3.960355 -0.308711 -0.124069 0.020188 -6.780838 18.130145 -6.305875 -0.946953 -3.681426 -2.919483 -2.734931 -3.350522 5.234059 10.287743 -8.693671 -1.178804 
